<svg width="34" height="30" viewBox="0 0 34 30" fill="none" xmlns="http://www.w3.org/2000/svg">
<path d="M26.5234 0.9375C26.3672 0.651041 26.1523 0.423178 25.8789 0.253906C25.6055 0.0846348 25.3125 0 25 0H8.35938C8.04688 0 7.75391 0.0846348 7.48047 0.253906C7.20703 0.423178 6.99219 0.651041 6.83594 0.9375L0.195312 14.2578C0.0651042 14.4922 0 14.7396 0 15C0 15.2604 0.0651042 15.5078 0.195312 15.7422L6.83594 29.0625C6.99219 29.349 7.20703 29.5768 7.48047 29.7461C7.75391 29.9154 8.04688 30 8.35938 30H25C25.3125 30 25.6055 29.9154 25.8789 29.7461C26.1523 29.5768 26.3672 29.349 26.5234 29.0625L33.1641 15.7422C33.2943 15.5078 33.3594 15.2604 33.3594 15C33.3594 14.7396 33.2943 14.4922 33.1641 14.2578L26.5234 0.9375ZM28.9844 13.3203H16.0547L11.0547 3.32031H23.9844L28.9844 13.3203ZM3.55469 15L8.35938 5.39062L13.1641 15L8.35938 24.6094L3.55469 15ZM23.9844 26.6797H11.0547L16.0547 16.6797H28.9844L23.9844 26.6797Z" fill="#0573BF"/>
</svg>
