<svg width="34" height="30" viewBox="0 0 34 30" fill="none" xmlns="http://www.w3.org/2000/svg">
<path d="M31.6797 13.3203H26.6797V1.67969C26.6797 1.21094 26.5169 0.813803 26.1914 0.488281C25.8659 0.16276 25.4688 0 25 0H1.67969C1.21094 0 0.813802 0.16276 0.488281 0.488281C0.16276 0.813803 0 1.21094 0 1.67969V25C0 26.3802 0.488281 27.5586 1.46484 28.5352C2.44141 29.5117 3.61979 30 5 30H28.3594C29.7396 30 30.918 29.5117 31.8945 28.5352C32.8711 27.5586 33.3594 26.3802 33.3594 25V15C33.3594 14.5312 33.1966 14.1341 32.8711 13.8086C32.5456 13.4831 32.1484 13.3203 31.6797 13.3203ZM5 26.6797C4.55729 26.6797 4.17318 26.5169 3.84766 26.1914C3.52214 25.8659 3.35938 25.4688 3.35938 25V3.32031H23.3594V25C23.3594 25.2865 23.3789 25.5729 23.418 25.8594C23.457 26.1458 23.5286 26.4193 23.6328 26.6797H5ZM30 25C30 25.4688 29.8372 25.8659 29.5117 26.1914C29.1862 26.5169 28.8021 26.6797 28.3594 26.6797C27.8906 26.6797 27.4935 26.5169 27.168 26.1914C26.8424 25.8659 26.6797 25.4688 26.6797 25V16.6797H30V25ZM6.67969 6.67969H20V10H6.67969V6.67969ZM6.67969 13.3203H20V16.6797H6.67969V13.3203ZM15 20H20V23.3203H15V20Z" fill="#0573BF"/>
</svg>
