<svg width="40" height="41" viewBox="0 0 40 41" fill="none" xmlns="http://www.w3.org/2000/svg">
<path d="M19.6226 27.5206C17.6168 27.5206 15.8943 26.7859 14.4553 25.3163C13.0164 23.8468 12.2969 22.0878 12.2969 20.0393C12.2969 17.9908 13.0164 16.2318 14.4553 14.7623C15.8943 13.2927 17.6168 12.558 19.6226 12.558C21.6285 12.558 23.3509 13.2927 24.7899 14.7623C26.2289 16.2318 26.9484 17.9908 26.9484 20.0393C26.9484 22.0878 26.2289 23.8468 24.7899 25.3163C23.3509 26.7859 21.6285 27.5206 19.6226 27.5206ZM19.6226 30.059C21.3669 30.059 23.0021 29.6136 24.5283 28.723C26.0545 27.8324 27.2537 26.6077 28.1258 25.0491C28.9979 23.4905 29.434 21.8206 29.434 20.0393C29.434 18.258 28.9979 16.5881 28.1258 15.0295C27.2537 13.4709 26.0545 12.2462 24.5283 11.3556C23.0021 10.465 21.3669 10.0196 19.6226 10.0196C17.8784 10.0196 16.2432 10.465 14.717 11.3556C13.1908 12.2462 11.9916 13.4709 11.1195 15.0295C10.2474 16.5881 9.81132 18.258 9.81132 20.0393C9.81132 21.8206 10.2474 23.4905 11.1195 25.0491C11.9916 26.6077 13.1908 27.8324 14.717 28.723C16.2432 29.6136 17.8784 30.059 19.6226 30.059ZM19.6226 -1.32918e-05C19.9715 -1.32918e-05 20.2549 0.111316 20.473 0.333975C20.691 0.556634 20.8 0.846091 20.8 1.20235V6.27897C20.8 6.63523 20.691 6.92468 20.473 7.14734C20.2549 7.37 19.9715 7.48133 19.6226 7.48133C19.2738 7.48133 18.9904 7.37 18.7723 7.14734C18.5543 6.92468 18.4453 6.63523 18.4453 6.27897V1.20235C18.4453 0.846091 18.5543 0.556634 18.7723 0.333975C18.9904 0.111316 19.2738 -1.32918e-05 19.6226 -1.32918e-05ZM19.6226 32.5973C19.9715 32.5973 20.2549 32.7086 20.473 32.9313C20.691 33.1539 20.8 33.4434 20.8 33.7996V38.8763C20.8 39.2325 20.691 39.522 20.473 39.7446C20.2549 39.9673 19.9715 40.0786 19.6226 40.0786C19.2738 40.0786 18.9904 39.9673 18.7723 39.7446C18.5543 39.522 18.4453 39.2325 18.4453 38.8763V33.7996C18.4453 33.4434 18.5543 33.1539 18.7723 32.9313C18.9904 32.7086 19.2738 32.5973 19.6226 32.5973ZM39.2453 20.0393C39.2453 20.3956 39.1363 20.685 38.9182 20.9077C38.7002 21.1303 38.4168 21.2417 38.0679 21.2417H33.0969C32.748 21.2417 32.4646 21.1303 32.2465 20.9077C32.0285 20.685 31.9195 20.3956 31.9195 20.0393C31.9195 19.683 32.0285 19.3936 32.2465 19.1709C32.4646 18.9483 32.748 18.8369 33.0969 18.8369H38.0679C38.4168 18.8369 38.7002 18.9483 38.9182 19.1709C39.1363 19.3936 39.2453 19.683 39.2453 20.0393ZM7.32579 20.0393C7.32579 20.3956 7.21677 20.685 6.99874 20.9077C6.78071 21.1303 6.49728 21.2417 6.14843 21.2417H1.17736C0.828512 21.2417 0.545073 21.1303 0.327044 20.9077C0.109015 20.685 0 20.3956 0 20.0393C0 19.683 0.109015 19.3936 0.327044 19.1709C0.545073 18.9483 0.828512 18.8369 1.17736 18.8369H6.14843C6.49728 18.8369 6.78071 18.9483 6.99874 19.1709C7.21677 19.3936 7.32579 19.683 7.32579 20.0393ZM33.4893 5.87819C33.7509 6.14538 33.8818 6.43483 33.8818 6.74656C33.8818 7.05828 33.7509 7.34773 33.4893 7.61493L30.0881 11.222C29.8264 11.4001 29.5212 11.4892 29.1723 11.4892C28.8235 11.4892 28.54 11.3779 28.322 11.1552C28.104 10.9325 27.995 10.6431 27.995 10.2868C27.995 9.93058 28.0822 9.61886 28.2566 9.35167L31.7887 5.87819C32.0503 5.61099 32.3338 5.4774 32.639 5.4774C32.9442 5.4774 33.2277 5.61099 33.4893 5.87819ZM10.9887 28.8566C11.1631 29.1238 11.2503 29.4355 11.2503 29.7918C11.2503 30.148 11.1631 30.4597 10.9887 30.7269L7.4566 34.2004C7.19497 34.4676 6.91153 34.6012 6.60629 34.6012C6.30105 34.6012 6.01761 34.4676 5.75598 34.2004C5.49434 33.9332 5.36352 33.6438 5.36352 33.332C5.36352 33.0203 5.49434 32.7309 5.75598 32.4637L9.15723 28.8566C9.41887 28.6785 9.72411 28.5894 10.073 28.5894C10.4218 28.5894 10.727 28.6785 10.9887 28.8566ZM33.4893 34.2004C33.2277 34.4676 32.9442 34.6012 32.639 34.6012C32.3338 34.6012 32.0503 34.4676 31.7887 34.2004L28.2566 30.7269C28.0822 30.4597 27.995 30.148 27.995 29.7918C27.995 29.4355 28.104 29.1461 28.322 28.9234C28.54 28.7007 28.8235 28.5894 29.1723 28.5894C29.5212 28.5894 29.8264 28.6785 30.0881 28.8566L33.4893 32.4637C33.7509 32.7309 33.8818 33.0203 33.8818 33.332C33.8818 33.6438 33.7509 33.9332 33.4893 34.2004ZM10.9887 11.222C10.727 11.4001 10.4218 11.4892 10.073 11.4892C9.72411 11.4892 9.41887 11.4001 9.15723 11.222L5.75598 7.61493C5.40713 7.25867 5.29811 6.85789 5.42893 6.41257C5.55975 5.96725 5.84319 5.67779 6.27925 5.5442C6.7153 5.4106 7.10776 5.52193 7.4566 5.87819L10.9887 9.35167C11.1631 9.61886 11.2503 9.93058 11.2503 10.2868C11.2503 10.6431 11.1631 10.9548 10.9887 11.222Z" fill="#6B2E2A"/>
</svg>
