<svg width="53" height="53" viewBox="0 0 53 53" fill="none" xmlns="http://www.w3.org/2000/svg">
<path d="M37.715 15.6558H16.4025C15.6525 15.6558 15.0171 15.9162 14.4962 16.437C13.9754 16.9578 13.715 17.5828 13.715 18.312V34.312C13.715 35.0412 13.9754 35.6662 14.4962 36.187C15.0171 36.7078 15.6525 36.9683 16.4025 36.9683H37.715C38.465 36.9683 39.1004 36.7078 39.6212 36.187C40.1421 35.6662 40.4025 35.0412 40.4025 34.312V18.312C40.4025 17.5828 40.1421 16.9578 39.6212 16.437C39.1004 15.9162 38.465 15.6558 37.715 15.6558ZM37.715 18.312V18.9995L27.0587 27.2808L16.4025 18.9995V18.312H37.715ZM16.4025 34.312V22.3745L26.2462 30.0308C26.3712 30.1349 26.5015 30.2078 26.6369 30.2495C26.7723 30.2912 26.9129 30.312 27.0587 30.312C27.2046 30.312 27.3452 30.2912 27.4806 30.2495C27.616 30.2078 27.7462 30.1349 27.8712 30.0308L37.715 22.3745V34.312H16.4025Z" fill="#003A62"/>
<rect x="1.715" y="1.65576" width="50" height="50" rx="25" stroke="#674B4C" stroke-width="2" stroke-dasharray="2 2"/>
</svg>
