<svg width="53" height="53" viewBox="0 0 53 53" fill="none" xmlns="http://www.w3.org/2000/svg">
<path d="M26.1913 29.9229C27.6705 29.9229 28.9309 29.402 29.9726 28.3604C31.0143 27.3187 31.5351 26.0687 31.5351 24.6104C31.5351 23.1312 31.0143 21.8708 29.9726 20.8291C28.9309 19.7874 27.6705 19.2666 26.1913 19.2666C24.7122 19.2666 23.4518 19.7874 22.4101 20.8291C21.3684 21.8708 20.8476 23.1312 20.8476 24.6104C20.8476 26.0687 21.3684 27.3187 22.4101 28.3604C23.4518 29.402 24.7122 29.9229 26.1913 29.9229ZM26.1913 21.9229C26.9205 21.9229 27.5455 22.1833 28.0663 22.7041C28.5872 23.2249 28.8476 23.8604 28.8476 24.6104C28.8476 25.3395 28.5872 25.9645 28.0663 26.4854C27.5455 27.0062 26.9205 27.2666 26.1913 27.2666C25.4622 27.2666 24.8372 27.0062 24.3163 26.4854C23.7955 25.9645 23.5351 25.3395 23.5351 24.6104C23.5351 23.8604 23.7955 23.2249 24.3163 22.7041C24.8372 22.1833 25.4622 21.9229 26.1913 21.9229ZM25.4101 40.3604C25.5351 40.4437 25.6653 40.5062 25.8007 40.5479C25.9361 40.5895 26.0663 40.6104 26.1913 40.6104C26.3163 40.6104 26.4466 40.5895 26.582 40.5479C26.7174 40.5062 26.8476 40.4437 26.9726 40.3604C27.0768 40.277 27.6497 39.8187 28.6913 38.9854C29.733 38.1312 30.8632 36.9958 32.082 35.5791C33.3007 34.1624 34.3997 32.5166 35.3788 30.6416C36.3788 28.7666 36.8684 26.7562 36.8476 24.6104C36.8476 23.1312 36.5663 21.7458 36.0038 20.4541C35.4622 19.1624 34.707 18.0322 33.7382 17.0635C32.7695 16.0947 31.6393 15.3291 30.3476 14.7666C29.0559 14.2041 27.6705 13.9229 26.1913 13.9229C24.7122 13.9229 23.3268 14.2041 22.0351 14.7666C20.7434 15.3291 19.6132 16.0947 18.6445 17.0635C17.6757 18.0322 16.9205 19.1624 16.3788 20.4541C15.8163 21.7458 15.5351 23.1208 15.5351 24.5791C15.5143 26.7458 16.0038 28.7666 17.0038 30.6416C17.983 32.5166 19.082 34.1624 20.3007 35.5791C21.5195 36.9958 22.6497 38.1312 23.6913 38.9854C24.733 39.8187 25.3059 40.277 25.4101 40.3604ZM26.1913 16.6104C27.2955 16.6104 28.3372 16.8187 29.3163 17.2354C30.2747 17.652 31.1184 18.2249 31.8476 18.9541C32.5768 19.6833 33.1497 20.527 33.5663 21.4854C33.983 22.4645 34.1913 23.5062 34.1913 24.6104C34.1913 26.0895 33.8788 27.5166 33.2538 28.8916C32.6288 30.2666 31.8788 31.5218 31.0038 32.6572C30.1288 33.7926 29.2434 34.7874 28.3476 35.6416C27.4518 36.4958 26.733 37.1416 26.1913 37.5791C25.6497 37.1416 24.9309 36.4958 24.0351 35.6416C23.1393 34.7874 22.2538 33.7926 21.3788 32.6572C20.5038 31.5218 19.7538 30.2666 19.1288 28.8916C18.5038 27.5166 18.1913 26.0895 18.1913 24.6104C18.1913 23.5062 18.3997 22.4645 18.8163 21.4854C19.233 20.5062 19.8059 19.6572 20.5351 18.9385C21.2643 18.2197 22.108 17.652 23.0663 17.2354C24.0455 16.8187 25.0872 16.6104 26.1913 16.6104Z" fill="#003A62"/>
<rect x="1.41" y="1.60693" width="50" height="50" rx="25" stroke="#674B4C" stroke-width="2" stroke-dasharray="2 2"/>
</svg>
