<svg width="53" height="53" viewBox="0 0 53 53" fill="none" xmlns="http://www.w3.org/2000/svg">
<path d="M32.5465 40.3433C32.5465 40.3433 32.5517 40.3433 32.5622 40.3433C32.5726 40.3433 32.5778 40.3433 32.5778 40.3433C32.932 40.3433 33.2705 40.2756 33.5934 40.1401C33.9163 40.0047 34.2028 39.812 34.4528 39.562L38.0778 35.937C38.3278 35.6662 38.4528 35.3485 38.4528 34.9839C38.4528 34.6193 38.3278 34.312 38.0778 34.062L32.734 28.7183C32.4632 28.4474 32.1455 28.312 31.7809 28.312C31.4163 28.312 31.109 28.4474 30.859 28.7183L28.734 30.8433C28.234 30.6974 27.5882 30.4526 26.7965 30.1089C26.0049 29.7651 25.3174 29.3016 24.734 28.7183C24.1507 28.1349 23.6872 27.4474 23.3434 26.6558C22.9997 25.8641 22.7549 25.2183 22.609 24.7183L24.734 22.5933C25.0049 22.3433 25.1403 22.0308 25.1403 21.6558C25.1403 21.2808 25.0049 20.9683 24.734 20.7183L19.3903 15.3745C19.1403 15.1245 18.8278 14.9995 18.4528 14.9995C18.0778 14.9995 17.7653 15.1245 17.5153 15.3745L13.8903 18.9995C13.6403 19.2495 13.4476 19.5412 13.3122 19.8745C13.1767 20.2078 13.109 20.5516 13.109 20.9058C13.1299 21.3849 13.1924 22.1245 13.2965 23.1245C13.4007 24.1245 13.6507 25.2599 14.0465 26.5308C14.4424 27.8016 15.0153 29.1349 15.7653 30.5308C16.5153 31.9474 17.5465 33.3016 18.859 34.5933C20.1507 35.9058 21.5049 36.937 22.9215 37.687C24.3174 38.437 25.6507 39.0099 26.9215 39.4058C28.1924 39.8016 29.3278 40.0516 30.3278 40.1558C31.3278 40.2599 32.0674 40.3224 32.5465 40.3433ZM18.4528 18.2183L21.9215 21.6558L20.1715 23.3745C20.0257 23.5412 19.9215 23.7339 19.859 23.9526C19.7965 24.1714 19.7861 24.3849 19.8278 24.5933C19.8486 24.6766 20.083 25.4214 20.5309 26.8276C20.9788 28.2339 21.7549 29.4891 22.859 30.5933C23.9632 31.6974 25.2184 32.4735 26.6247 32.9214C28.0309 33.3693 28.7757 33.6037 28.859 33.6245C29.0674 33.6662 29.2809 33.6558 29.4997 33.5933C29.7184 33.5308 29.9111 33.4266 30.0778 33.2808L31.7965 31.5308L35.234 34.9995L32.5778 37.6558C32.1611 37.6558 31.5153 37.6037 30.6403 37.4995C29.7861 37.4162 28.807 37.2026 27.7028 36.8589C26.5986 36.5151 25.4424 36.0203 24.234 35.3745C23.0257 34.7287 21.859 33.8433 20.734 32.7183C19.609 31.5933 18.7236 30.4266 18.0778 29.2183C17.4111 27.9891 16.9111 26.8276 16.5778 25.7339C16.2445 24.6401 16.0361 23.6558 15.9528 22.7808C15.8486 21.9266 15.7965 21.2912 15.7965 20.8745L18.4528 18.2183ZM37.109 25.6558H39.7965C39.7965 23.9474 39.484 22.3641 38.859 20.9058C38.2549 19.4474 37.4163 18.1818 36.3434 17.1089C35.2705 16.036 34.0049 15.1974 32.5465 14.5933C31.0674 13.9683 29.4736 13.6558 27.7653 13.6558V16.3433C29.1195 16.3433 30.3695 16.5724 31.5153 17.0308C32.6611 17.4891 33.6507 18.1349 34.484 18.9683C35.3174 19.8016 35.9632 20.7912 36.4215 21.937C36.8799 23.062 37.109 24.3016 37.109 25.6558ZM27.7965 21.6558C29.1924 21.6558 30.208 21.9735 30.8434 22.6089C31.4788 23.2443 31.7965 24.2599 31.7965 25.6558H34.4528C34.4528 23.5099 33.8799 21.8641 32.734 20.7183C31.5882 19.5724 29.9424 18.9995 27.7965 18.9995V21.6558Z" fill="#003A62"/>
<rect x="1.10904" y="1.65576" width="50" height="50" rx="25" stroke="#674B4C" stroke-width="2" stroke-dasharray="2 2"/>
</svg>
