<svg width="11" height="15" viewBox="0 0 11 15" fill="none" xmlns="http://www.w3.org/2000/svg">
<path d="M5.5625 4.07227C5.20215 4.07227 4.86377 4.16016 4.54736 4.33594C4.23096 4.52344 3.9563 4.77246 3.72339 5.08301C3.49048 5.39355 3.30371 5.75977 3.16309 6.18164C3.03125 6.60352 2.96533 7.05469 2.96533 7.53516C2.96533 8.01562 3.03125 8.4668 3.16309 8.88867C3.30371 9.31055 3.49048 9.67676 3.72339 9.9873C3.9563 10.2979 4.23096 10.5469 4.54736 10.7344C4.86377 10.9102 5.20215 10.998 5.5625 10.998C5.92285 10.998 6.26123 10.9102 6.57764 10.7344C6.89404 10.5469 7.1687 10.2979 7.40161 9.9873C7.63452 9.67676 7.82129 9.31055 7.96191 8.88867C8.09375 8.4668 8.15967 8.01562 8.15967 7.53516C8.15967 7.05469 8.09375 6.60352 7.96191 6.18164C7.82129 5.75977 7.63452 5.39355 7.40161 5.08301C7.1687 4.77246 6.89404 4.52344 6.57764 4.33594C6.26123 4.16016 5.92285 4.07227 5.5625 4.07227ZM5.5625 9.78516C5.09668 9.78516 4.69897 9.56543 4.36938 9.12598C4.03979 8.68652 3.875 8.15625 3.875 7.53516C3.875 6.91406 4.03979 6.38379 4.36938 5.94434C4.69897 5.50488 5.09668 5.28516 5.5625 5.28516C6.02832 5.28516 6.42603 5.50488 6.75562 5.94434C7.08521 6.38379 7.25 6.91406 7.25 7.53516C7.25 8.15625 7.08521 8.68652 6.75562 9.12598C6.42603 9.56543 6.02832 9.78516 5.5625 9.78516ZM8.87158 3.93164C8.87158 4.16602 8.81226 4.35938 8.6936 4.51172C8.57495 4.66406 8.43213 4.74023 8.26514 4.74023C8.09814 4.74023 7.95532 4.66406 7.83667 4.51172C7.71802 4.35938 7.65869 4.16602 7.65869 3.93164C7.65869 3.70898 7.71802 3.52148 7.83667 3.36914C7.95532 3.2168 8.09814 3.14062 8.26514 3.14062C8.43213 3.14062 8.57495 3.2168 8.6936 3.36914C8.81226 3.52148 8.87158 3.70898 8.87158 3.93164ZM10.3613 3.12305C10.2295 2.66602 10.0339 2.26465 9.77466 1.91895C9.51538 1.57324 9.21875 1.3125 8.88477 1.13672C8.68262 1.04297 8.47827 0.969727 8.27173 0.916992C8.06519 0.864258 7.85645 0.837891 7.64551 0.837891C7.38184 0.814453 7.14014 0.799805 6.92041 0.793945C6.70068 0.788086 6.24805 0.785156 5.5625 0.785156C4.87695 0.785156 4.42432 0.788086 4.20459 0.793945C3.98486 0.799805 3.74316 0.814453 3.47949 0.837891C3.26855 0.837891 3.05981 0.864258 2.85327 0.916992C2.64673 0.969727 2.44678 1.04297 2.25342 1.13672C1.91064 1.3125 1.60962 1.57324 1.35034 1.91895C1.09106 2.26465 0.895508 2.66602 0.763672 3.12305C0.693359 3.38086 0.638428 3.64746 0.598877 3.92285C0.559326 4.19824 0.535156 4.47656 0.526367 4.75781C0.517578 5.12109 0.510986 5.44629 0.506592 5.7334C0.502197 6.02051 0.5 6.62109 0.5 7.53516C0.5 8.44922 0.502197 9.05273 0.506592 9.3457C0.510986 9.63867 0.517578 9.9668 0.526367 10.3301C0.535156 10.6113 0.559326 10.8867 0.598877 11.1562C0.638428 11.4258 0.693359 11.6953 0.763672 11.9648C0.895508 12.4219 1.09106 12.8203 1.35034 13.1602C1.60962 13.5 1.91064 13.7578 2.25342 13.9336C2.44678 14.0391 2.64673 14.1211 2.85327 14.1797C3.05981 14.2383 3.26855 14.2676 3.47949 14.2676C3.75195 14.291 3.99585 14.3057 4.21118 14.3115C4.42651 14.3174 4.87695 14.3203 5.5625 14.3203C6.24805 14.3203 6.70068 14.3174 6.92041 14.3115C7.14014 14.3057 7.38623 14.291 7.65869 14.2676C7.86084 14.2676 8.06519 14.2412 8.27173 14.1885C8.47827 14.1357 8.68262 14.0625 8.88477 13.9688C9.22754 13.793 9.52637 13.5322 9.78125 13.1865C10.0361 12.8408 10.2295 12.4395 10.3613 11.9824C10.4404 11.7246 10.4998 11.458 10.5393 11.1826C10.5789 10.9072 10.5986 10.6289 10.5986 10.3477C10.6074 9.98438 10.614 9.65918 10.6184 9.37207C10.6228 9.08496 10.625 8.48438 10.625 7.57031C10.625 6.64453 10.625 6.03809 10.625 5.75098C10.625 5.46387 10.6162 5.13867 10.5986 4.77539C10.5986 4.49414 10.5789 4.21289 10.5393 3.93164C10.4998 3.65039 10.4404 3.38086 10.3613 3.12305ZM9.67578 10.2598C9.67578 10.4824 9.6604 10.6992 9.62964 10.9102C9.59888 11.1211 9.55713 11.3262 9.50439 11.5254C9.4165 11.8301 9.28906 12.0938 9.12207 12.3164C8.95508 12.5391 8.76172 12.7031 8.54199 12.8086C8.39258 12.8906 8.23877 12.9492 8.08057 12.9844C7.92236 13.0195 7.76416 13.043 7.60596 13.0547C7.3335 13.0664 7.09399 13.0752 6.88745 13.0811C6.68091 13.0869 6.23486 13.0898 5.54932 13.0898C4.86377 13.0898 4.41772 13.0869 4.21118 13.0811C4.00464 13.0752 3.76514 13.0664 3.49268 13.0547C3.32568 13.0547 3.16528 13.0342 3.01147 12.9932C2.85767 12.9521 2.70166 12.8906 2.54346 12.8086C2.32373 12.7031 2.13037 12.5391 1.96338 12.3164C1.79639 12.0938 1.66895 11.8301 1.58105 11.5254C1.52832 11.3262 1.48657 11.1211 1.45581 10.9102C1.42505 10.6992 1.40967 10.4883 1.40967 10.2773C1.39209 9.92578 1.3833 9.60938 1.3833 9.32812C1.3833 9.04688 1.3833 8.44922 1.3833 7.53516C1.3833 6.62109 1.3833 6.02637 1.3833 5.75098C1.3833 5.47559 1.39209 5.15625 1.40967 4.79297C1.40967 4.58203 1.42505 4.37109 1.45581 4.16016C1.48657 3.94922 1.52832 3.73828 1.58105 3.52734C1.66895 3.23438 1.79639 2.97656 1.96338 2.75391C2.13037 2.53125 2.32373 2.36133 2.54346 2.24414C2.70166 2.17383 2.85767 2.11816 3.01147 2.07715C3.16528 2.03613 3.32568 2.01562 3.49268 2.01562C3.75635 2.00391 3.99365 1.99512 4.20459 1.98926C4.41553 1.9834 4.86377 1.98047 5.54932 1.98047C6.23486 1.98047 6.68091 1.98047 6.88745 1.98047C7.09399 1.98047 7.3335 1.99219 7.60596 2.01562C7.76416 2.01562 7.92236 2.03613 8.08057 2.07715C8.23877 2.11816 8.39258 2.17383 8.54199 2.24414C8.76172 2.36133 8.95508 2.53125 9.12207 2.75391C9.28906 2.97656 9.4165 3.23438 9.50439 3.52734C9.55713 3.73828 9.59888 3.94629 9.62964 4.15137C9.6604 4.35645 9.67578 4.57031 9.67578 4.79297C9.68457 5.14453 9.69116 5.46094 9.69556 5.74219C9.69995 6.02344 9.70215 6.62109 9.70215 7.53516C9.70215 8.44922 9.70215 9.04395 9.70215 9.31934C9.70215 9.59473 9.69775 9.9082 9.68896 10.2598H9.67578Z" fill="white"/>
</svg>
