<svg width="12" height="13" viewBox="0 0 12 13" fill="none" xmlns="http://www.w3.org/2000/svg">
<path d="M9.92725 3.32031C9.92725 3.39062 9.92725 3.45801 9.92725 3.52246C9.92725 3.58691 9.92725 3.6543 9.92725 3.72461C9.92725 4.7207 9.78662 5.72852 9.50537 6.74805C9.22412 7.76758 8.81104 8.69043 8.26611 9.5166C7.72119 10.3428 7.04883 11.0137 6.24902 11.5293C5.44922 12.0566 4.52637 12.3203 3.48047 12.3203C2.83887 12.3203 2.22363 12.2002 1.63477 11.96C1.0459 11.7197 0.500977 11.3828 0 10.9492C0.0966797 10.9727 0.188965 10.9844 0.276855 10.9844C0.364746 10.9844 0.457031 10.9844 0.553711 10.9844C1.08105 10.9844 1.58423 10.873 2.06323 10.6504C2.54224 10.4277 2.9751 10.1113 3.36182 9.70117C2.86963 9.68945 2.43018 9.4873 2.04346 9.09473C1.65674 8.70215 1.38867 8.20703 1.23926 7.60938C1.30957 7.62109 1.38208 7.63281 1.45679 7.64453C1.53149 7.65625 1.604 7.66211 1.67432 7.66211C1.77979 7.66211 1.88086 7.65039 1.97754 7.62695C2.07422 7.60352 2.1709 7.58008 2.26758 7.55664C1.74902 7.41602 1.31616 7.07031 0.968994 6.51953C0.621826 5.96875 0.448242 5.32422 0.448242 4.58594V4.55078C0.606445 4.65625 0.77124 4.74414 0.942627 4.81445C1.11401 4.88477 1.29199 4.92578 1.47656 4.9375C1.16895 4.66797 0.922852 4.31055 0.738281 3.86523C0.553711 3.41992 0.461426 2.93945 0.461426 2.42383C0.461426 2.14258 0.48999 1.87305 0.547119 1.61523C0.604248 1.35742 0.681152 1.11719 0.777832 0.894531C1.05908 1.35156 1.37109 1.76758 1.71387 2.14258C2.05664 2.51758 2.42578 2.83984 2.82129 3.10938C3.2168 3.37891 3.63867 3.5957 4.08691 3.75977C4.52637 3.92383 4.979 4.02344 5.44482 4.05859C5.42725 3.94141 5.41406 3.82422 5.40527 3.70703C5.39648 3.58984 5.39209 3.47266 5.39209 3.35547C5.39209 2.52344 5.61182 1.81152 6.05127 1.21973C6.49072 0.62793 7.02686 0.332031 7.65967 0.332031C7.98486 0.332031 8.29028 0.419922 8.57593 0.595703C8.86157 0.771484 9.10547 1.00586 9.30762 1.29883C9.57129 1.22852 9.82397 1.13184 10.0657 1.00879C10.3074 0.885742 10.5337 0.736328 10.7446 0.560547C10.6655 0.912109 10.5403 1.23145 10.3689 1.51855C10.1975 1.80566 9.99316 2.04297 9.75586 2.23047C9.98438 2.19531 10.2085 2.13672 10.4282 2.05469C10.6479 1.97266 10.8589 1.87305 11.061 1.75586C10.9028 2.06055 10.7292 2.34473 10.5403 2.6084C10.3513 2.87207 10.147 3.10938 9.92725 3.32031Z" fill="white"/>
</svg>
