<svg width="11" height="15" viewBox="0 0 11 15" fill="none" xmlns="http://www.w3.org/2000/svg">
<path d="M5.2334 11.6309C4.40723 11.6309 3.79858 11.4053 3.40747 10.9541C3.01636 10.5029 2.8208 10.0664 2.8208 9.64453C2.8208 9.55078 2.83398 9.45703 2.86035 9.36328C2.88672 9.26953 2.92627 9.1875 2.979 9.11719C3.03174 9.05859 3.09326 9.01172 3.16357 8.97656C3.23389 8.94141 3.30859 8.92383 3.3877 8.92383C3.73926 8.92383 3.96997 9.16406 4.07983 9.64453C4.1897 10.125 4.57422 10.3652 5.2334 10.3652C5.56738 10.3652 5.82886 10.251 6.01782 10.0225C6.20679 9.79395 6.30127 9.55078 6.30127 9.29297C6.30127 9.14062 6.26172 8.98535 6.18262 8.82715C6.10352 8.66895 5.9541 8.55469 5.73438 8.48438L4.24463 7.97461C3.65576 7.77539 3.27783 7.47656 3.11084 7.07812C2.94385 6.67969 2.86035 6.26953 2.86035 5.84766C2.86035 4.99219 3.09985 4.38867 3.57886 4.03711C4.05786 3.68555 4.57422 3.50977 5.12793 3.50977C5.6377 3.50977 6.13647 3.67969 6.62427 4.01953C7.11206 4.35938 7.35596 4.78711 7.35596 5.30273C7.35596 5.52539 7.29663 5.69531 7.17798 5.8125C7.05933 5.92969 6.9209 5.98828 6.7627 5.98828C6.46387 5.98828 6.25513 5.79492 6.13647 5.4082C6.01782 5.02148 5.65088 4.82812 5.03564 4.82812C4.73682 4.82812 4.5083 4.91602 4.3501 5.0918C4.19189 5.26758 4.11279 5.49023 4.11279 5.75977C4.11279 6.0293 4.20947 6.21973 4.40283 6.33105C4.59619 6.44238 4.79395 6.5332 4.99609 6.60352L6.09033 6.9375C6.68799 7.11328 7.09009 7.41211 7.29663 7.83398C7.50317 8.25586 7.60645 8.69531 7.60645 9.15234C7.60645 9.85547 7.40649 10.4443 7.00659 10.9189C6.60669 11.3936 6.01562 11.6309 5.2334 11.6309ZM9.80811 8.67773C9.83447 8.49023 9.85205 8.30273 9.86084 8.11523C9.86963 7.92773 9.87402 7.74609 9.87402 7.57031C9.88281 6.63281 9.74219 5.73926 9.45215 4.88965C9.16211 4.04004 8.75342 3.31055 8.22607 2.70117C7.68994 2.10352 7.08789 1.68164 6.41992 1.43555C5.75195 1.18945 5.07959 1.14844 4.40283 1.3125C4.19189 1.14844 3.96997 1.02539 3.73706 0.943359C3.50415 0.861328 3.26904 0.820312 3.03174 0.820312C2.53076 0.820312 2.06714 0.990234 1.64087 1.33008C1.2146 1.66992 0.874023 2.12695 0.619141 2.70117C0.373047 3.28711 0.25 3.91699 0.25 4.59082C0.25 5.26465 0.373047 5.88867 0.619141 6.46289C0.548828 6.97852 0.526855 7.48828 0.553223 7.99219C0.570801 8.49609 0.636719 8.98828 0.750977 9.46875C0.865234 9.94922 1.01465 10.4121 1.19922 10.8574C1.39258 11.291 1.62549 11.6895 1.89795 12.0527C2.17041 12.4277 2.46484 12.7441 2.78125 13.002C3.10645 13.2715 3.44702 13.4795 3.80298 13.626C4.15894 13.7725 4.52148 13.8633 4.89062 13.8984C5.26855 13.9336 5.64648 13.9102 6.02441 13.8281C6.23535 13.9922 6.45728 14.1152 6.69019 14.1973C6.9231 14.2793 7.1582 14.3203 7.39551 14.3203C7.89648 14.3203 8.36011 14.1504 8.78638 13.8105C9.21265 13.4707 9.54883 13.0137 9.79492 12.4395C10.0498 11.8535 10.1772 11.2266 10.1772 10.5586C10.1772 9.89062 10.0542 9.26367 9.80811 8.67773Z" fill="white"/>
</svg>
