<svg width="11" height="15" viewBox="0 0 11 15" fill="none" xmlns="http://www.w3.org/2000/svg">
<path d="M2.46533 2.33203C2.46533 2.77734 2.34448 3.16113 2.10278 3.4834C1.86108 3.80566 1.57324 3.9668 1.23926 3.9668C0.896484 3.9668 0.604248 3.80566 0.362549 3.4834C0.12085 3.16113 0 2.77734 0 2.33203C0 1.875 0.12085 1.48535 0.362549 1.16309C0.604248 0.84082 0.896484 0.679688 1.23926 0.679688C1.57324 0.679688 1.86108 0.84082 2.10278 1.16309C2.34448 1.48535 2.46533 1.875 2.46533 2.33203ZM3.62549 5.21484V14.3203H5.74805V9.82031C5.74805 9.22266 5.82275 8.68359 5.97217 8.20312C6.12158 7.72266 6.46875 7.48242 7.01367 7.48242C7.55859 7.48242 7.87939 7.75195 7.97607 8.29102C8.07275 8.83008 8.12109 9.36328 8.12109 9.89062V14.3203H10.2437V9.32812C10.2437 8.09766 10.0876 7.06641 9.77563 6.23438C9.46362 5.40234 8.77148 4.98633 7.69922 4.98633C7.18066 4.98633 6.7522 5.1416 6.41382 5.45215C6.07544 5.7627 5.83594 6.09961 5.69531 6.46289H5.65576V5.21484H3.62549ZM0.171387 5.21484H2.29395V14.3203H0.171387V5.21484Z" fill="white"/>
</svg>
